<?xml version="1.0" encoding="utf-8"?>
<!-- Generator: Adobe Illustrator 19.0.1, SVG Export Plug-In . SVG Version: 6.00 Build 0)  -->
<!DOCTYPE svg PUBLIC "-//W3C//DTD SVG 1.1//EN" "http://www.w3.org/Graphics/SVG/1.1/DTD/svg11.dtd">
<svg version="1.1" id="Layer_1" xmlns="http://www.w3.org/2000/svg" xmlns:xlink="http://www.w3.org/1999/xlink" x="0px" y="0px"
	 viewBox="-99 31.9 400 238.1" style="enable-background:new -99 31.9 400 238.1;" xml:space="preserve">
<style type="text/css">
	.st0{enable-background:new    ;}
	.st1{fill:#243238;}
	.st2{fill:#EC1561;}
	.st3{fill:#1770FF;}
</style>
<g>
	<g transform="matrix( 2.2340545654296875, 0, 0, 2.2340545654296875, -27.75,239.45) ">
		<g>
			<g class="st0">
				<path class="st1" d="M-7.7-2.6l6.5-20h4.9L-5.6,3h-4.3l-9.2-25.6h4.9L-7.7-2.6z"/>
				<path class="st1" d="M13.7,3.3c-2.7,0-4.9-0.9-6.6-2.6C5.4-1,4.6-3.2,4.6-6.1v-0.5c0-1.9,0.4-3.6,1.1-5.1
					c0.7-1.5,1.8-2.7,3.1-3.5c1.3-0.8,2.8-1.2,4.4-1.2c2.6,0,4.6,0.8,6,2.5c1.4,1.7,2.1,4,2.1,7v1.7H8.9C9-3.6,9.6-2.4,10.5-1.5
					c0.9,0.9,2.1,1.4,3.5,1.4c2,0,3.6-0.8,4.8-2.4L21-0.3c-0.8,1.1-1.8,2-3,2.6C16.7,3,15.3,3.3,13.7,3.3z M13.2-13
					c-1.2,0-2.1,0.4-2.8,1.2c-0.7,0.8-1.2,2-1.4,3.4h8.1v-0.3c-0.1-1.4-0.5-2.5-1.1-3.2C15.3-12.6,14.4-13,13.2-13z"/>
				<path class="st1" d="M28.6-16.1l0.1,2.2c1.4-1.7,3.3-2.5,5.5-2.5c4,0,6,2.3,6,6.8V3h-4.3V-9.4c0-1.2-0.3-2.1-0.8-2.7
					c-0.5-0.6-1.4-0.9-2.6-0.9c-1.7,0-3,0.8-3.8,2.3V3h-4.3v-19H28.6z"/>
				<path class="st1" d="M43.9-6.7c0-2.9,0.7-5.3,2-7.1c1.4-1.8,3.2-2.7,5.5-2.7c2,0,3.6,0.7,4.9,2.1V-24h4.3V3h-3.9l-0.2-2
					c-1.3,1.5-3,2.3-5.1,2.3c-2.2,0-4-0.9-5.4-2.7C44.6-1.2,43.9-3.6,43.9-6.7z M48.1-6.3c0,1.9,0.4,3.4,1.1,4.5
					c0.7,1.1,1.8,1.6,3.2,1.6c1.7,0,3-0.8,3.8-2.3v-8.1c-0.8-1.5-2.1-2.3-3.8-2.3c-1.4,0-2.4,0.5-3.2,1.6
					C48.5-10.2,48.1-8.5,48.1-6.3z"/>
				<path class="st1" d="M76.5,1.1c-1.3,1.5-3,2.2-5.3,2.2c-2.1,0-3.6-0.6-4.7-1.8c-1.1-1.2-1.6-3-1.6-5.2v-12.3h4.3v12.3
					c0,2.4,1,3.6,3,3.6c2.1,0,3.5-0.7,4.2-2.2v-13.7h4.3V3h-4L76.5,1.1z"/>
				<path class="st1" d="M89-16.1l0.1,2c1.3-1.6,3.2-2.3,5.5-2.3c2.5,0,4.3,1,5.2,2.9c1.4-1.9,3.3-2.9,5.8-2.9
					c2.1,0,3.7,0.6,4.7,1.7s1.6,2.9,1.6,5.1V3h-4.3V-9.4c0-1.2-0.3-2.1-0.8-2.7c-0.5-0.6-1.4-0.8-2.6-0.8c-1,0-1.8,0.3-2.4,0.8
					c-0.6,0.5-1,1.2-1.3,2l0,13h-4.3V-9.6c-0.1-2.2-1.2-3.4-3.4-3.4c-1.7,0-2.9,0.7-3.6,2.1V3H85v-19H89z"/>
				<path class="st1" d="M115.5-6.7c0-1.9,0.4-3.5,1.1-5s1.8-2.6,3.1-3.4c1.3-0.8,2.9-1.2,4.6-1.2c2.6,0,4.6,0.8,6.2,2.5
					c1.6,1.7,2.5,3.8,2.6,6.6l0,1c0,1.9-0.4,3.6-1.1,5c-0.7,1.5-1.8,2.6-3.1,3.4c-1.3,0.8-2.9,1.2-4.6,1.2c-2.7,0-4.8-0.9-6.4-2.7
					s-2.4-4.2-2.4-7.1V-6.7z M119.8-6.4c0,2,0.4,3.5,1.2,4.6c0.8,1.1,1.9,1.7,3.4,1.7c1.4,0,2.6-0.6,3.4-1.7
					c0.8-1.1,1.2-2.8,1.2-4.9c0-1.9-0.4-3.4-1.2-4.6c-0.8-1.1-1.9-1.7-3.4-1.7c-1.4,0-2.5,0.6-3.3,1.7
					C120.2-10.2,119.8-8.6,119.8-6.4z"/>
			</g>
		</g>
	</g>
	<g transform="matrix( 2.038421630859375, 0, 0, 2.038421630859375, -358.7,-83.4) ">
		<g>
			<g id="Layer0_1_FILL">
				<path class="st2" d="M223.9,66.5h-21.5L223.9,88V66.5 M227.1,66.5V88h21.5L227.1,66.5z"/>
				<path class="st3" d="M202.4,112.7h21.5V91.2L202.4,112.7 M227.1,91.2v21.5l21.5-21.5H227.1z"/>
			</g>
		</g>
	</g>
</g>
</svg>
