<?xml version="1.0" encoding="utf-8"?>
<!-- Generator: Adobe Illustrator 19.0.1, SVG Export Plug-In . SVG Version: 6.00 Build 0)  -->
<!DOCTYPE svg PUBLIC "-//W3C//DTD SVG 1.1//EN" "http://www.w3.org/Graphics/SVG/1.1/DTD/svg11.dtd">
<svg version="1.1" id="Layer_1" xmlns="http://www.w3.org/2000/svg" xmlns:xlink="http://www.w3.org/1999/xlink" x="0px" y="0px"
	 viewBox="-60 235.4 478.1 130.6" style="enable-background:new -60 235.4 478.1 130.6;" xml:space="preserve">
<style type="text/css">
	.st0{fill:#B3BABC;}
	.st1{enable-background:new    ;}
	.st2{fill:#FFFFFF;}
	.st3{fill:none;stroke:#FFFFFF;stroke-miterlimit:10;}
</style>
<g>
	<polygon class="st0" points="-5,341.3 -5,301.3 35,301.3 	"/>
	<polygon class="st0" points="35,297.3 -5,297.3 -5,257.3 	"/>
	<g id="XMLID_1_">
		<g>
			<polygon class="st0" points="-9,301.3 -9,341.3 -49,341.3 			"/>
			<polygon class="st0" points="-9,257.3 -9,297.3 -49,257.3 			"/>
		</g>
	</g>
	<polygon class="st0" points="-29.1,257.3 -9.1,257.3 -9.1,277.3 	"/>
	<polygon class="st0" points="-9,321.3 -9,341.3 -29,341.3 	"/>
	<polygon class="st0" points="15,297.3 -5,297.3 -5,277.3 	"/>
	<polygon class="st0" points="-5,321.3 -5,301.3 15,301.3 	"/>
</g>
<g class="st1">
	<path class="st2" d="M94.9,313l12.9-42.8h13L101,327.1H88.8L69,270.2h13L94.9,313z"/>
	<path class="st2" d="M141.1,327.9c-6.2,0-11.2-1.9-15.1-5.7c-3.9-3.8-5.8-8.9-5.8-15.2v-1.1c0-4.2,0.8-8,2.5-11.4
		c1.6-3.3,4-5.9,7-7.7c3-1.8,6.4-2.7,10.3-2.7c5.8,0,10.3,1.8,13.7,5.5c3.3,3.6,5,8.8,5,15.5v4.6h-26.9c0.4,2.8,1.5,5,3.3,6.6
		c1.8,1.7,4.2,2.5,7,2.5c4.3,0,7.7-1.6,10.2-4.7l5.5,6.2c-1.7,2.4-4,4.3-6.9,5.6S144.7,327.9,141.1,327.9z M139.9,293.1
		c-2.2,0-4.1,0.8-5.4,2.3c-1.4,1.5-2.3,3.7-2.7,6.5h15.7V301c-0.1-2.5-0.7-4.5-2-5.8C144.1,293.8,142.2,293.1,139.9,293.1z"/>
	<path class="st2" d="M173.3,284.8l0.4,4.9c3-3.8,7.1-5.7,12.1-5.7c4.5,0,7.8,1.3,10,3.9c2.2,2.6,3.3,6.6,3.4,11.8v27.3h-11.3V300
		c0-2.4-0.5-4.1-1.6-5.2c-1-1.1-2.8-1.6-5.2-1.6c-3.2,0-5.6,1.4-7.1,4.1v29.9h-11.3v-42.3H173.3z"/>
	<path class="st2" d="M204,305.6c0-6.6,1.5-11.8,4.4-15.7c3-3.9,7-5.9,12.1-5.9c4.1,0,7.5,1.5,10.2,4.6v-21.6h11.3v60h-10.2
		l-0.5-4.5c-2.8,3.5-6.4,5.3-10.9,5.3c-5,0-9-2-12-5.9C205.5,318.1,204,312.6,204,305.6z M215.3,306.4c0,4,0.7,7,2.1,9.1
		c1.4,2.1,3.4,3.2,6,3.2c3.5,0,6-1.5,7.4-4.4v-16.8c-1.4-3-3.8-4.4-7.3-4.4C218,293.1,215.3,297.6,215.3,306.4z"/>
	<path class="st2" d="M274.1,322.8c-2.8,3.4-6.6,5.1-11.6,5.1c-4.5,0-8-1.3-10.4-3.9c-2.4-2.6-3.6-6.4-3.7-11.4v-27.7h11.3v27.3
		c0,4.4,2,6.6,6,6.6c3.8,0,6.5-1.3,7.9-4v-30h11.3v42.3h-10.6L274.1,322.8z"/>
	<path class="st2" d="M302.2,284.8l0.4,4.7c3-3.7,7-5.5,12.1-5.5c5.4,0,9.2,2.1,11.2,6.4c3-4.3,7.2-6.4,12.7-6.4c4.6,0,8,1.3,10.2,4
		c2.2,2.7,3.4,6.7,3.4,12.1v27h-11.3v-27c0-2.4-0.5-4.2-1.4-5.3c-0.9-1.1-2.6-1.7-5-1.7c-3.4,0-5.7,1.6-7,4.9l0,29.1h-11.3v-27
		c0-2.5-0.5-4.2-1.4-5.3c-1-1.1-2.6-1.6-4.9-1.6c-3.2,0-5.5,1.3-7,4v30h-11.3v-42.3H302.2z"/>
	<path class="st2" d="M357.1,305.5c0-4.2,0.8-7.9,2.4-11.2c1.6-3.3,3.9-5.8,7-7.6c3-1.8,6.6-2.7,10.6-2.7c5.7,0,10.4,1.7,14,5.2
		c3.6,3.5,5.6,8.2,6,14.2l0.1,2.9c0,6.5-1.8,11.7-5.4,15.6c-3.6,3.9-8.5,5.9-14.6,5.9s-11-2-14.6-5.9s-5.4-9.2-5.4-15.9V305.5z
		 M368.4,306.4c0,4,0.8,7.1,2.3,9.2c1.5,2.1,3.7,3.2,6.5,3.2c2.7,0,4.9-1,6.4-3.1c1.5-2.1,2.3-5.5,2.3-10.1c0-3.9-0.8-7-2.3-9.2
		c-1.5-2.2-3.7-3.2-6.5-3.2c-2.8,0-4.9,1.1-6.4,3.2C369.1,298.5,368.4,301.8,368.4,306.4z"/>
</g>
<g class="st1">
	<path class="st3" d="M94.9,313l12.9-42.8h13L101,327.1H88.8L69,270.2h13L94.9,313z"/>
	<path class="st3" d="M141.1,327.9c-6.2,0-11.2-1.9-15.1-5.7c-3.9-3.8-5.8-8.9-5.8-15.2v-1.1c0-4.2,0.8-8,2.5-11.4
		c1.6-3.3,4-5.9,7-7.7c3-1.8,6.4-2.7,10.3-2.7c5.8,0,10.3,1.8,13.7,5.5c3.3,3.6,5,8.8,5,15.5v4.6h-26.9c0.4,2.8,1.5,5,3.3,6.6
		c1.8,1.7,4.2,2.5,7,2.5c4.3,0,7.7-1.6,10.2-4.7l5.5,6.2c-1.7,2.4-4,4.3-6.9,5.6S144.7,327.9,141.1,327.9z M139.9,293.1
		c-2.2,0-4.1,0.8-5.4,2.3c-1.4,1.5-2.3,3.7-2.7,6.5h15.7V301c-0.1-2.5-0.7-4.5-2-5.8C144.1,293.8,142.2,293.1,139.9,293.1z"/>
	<path class="st3" d="M173.3,284.8l0.4,4.9c3-3.8,7.1-5.7,12.1-5.7c4.5,0,7.8,1.3,10,3.9c2.2,2.6,3.3,6.6,3.4,11.8v27.3h-11.3V300
		c0-2.4-0.5-4.1-1.6-5.2c-1-1.1-2.8-1.6-5.2-1.6c-3.2,0-5.6,1.4-7.1,4.1v29.9h-11.3v-42.3H173.3z"/>
	<path class="st3" d="M204,305.6c0-6.6,1.5-11.8,4.4-15.7c3-3.9,7-5.9,12.1-5.9c4.1,0,7.5,1.5,10.2,4.6v-21.6h11.3v60h-10.2
		l-0.5-4.5c-2.8,3.5-6.4,5.3-10.9,5.3c-5,0-9-2-12-5.9C205.5,318.1,204,312.6,204,305.6z M215.3,306.4c0,4,0.7,7,2.1,9.1
		c1.4,2.1,3.4,3.2,6,3.2c3.5,0,6-1.5,7.4-4.4v-16.8c-1.4-3-3.8-4.4-7.3-4.4C218,293.1,215.3,297.6,215.3,306.4z"/>
	<path class="st3" d="M274.1,322.8c-2.8,3.4-6.6,5.1-11.6,5.1c-4.5,0-8-1.3-10.4-3.9c-2.4-2.6-3.6-6.4-3.7-11.4v-27.7h11.3v27.3
		c0,4.4,2,6.6,6,6.6c3.8,0,6.5-1.3,7.9-4v-30h11.3v42.3h-10.6L274.1,322.8z"/>
	<path class="st3" d="M302.2,284.8l0.4,4.7c3-3.7,7-5.5,12.1-5.5c5.4,0,9.2,2.1,11.2,6.4c3-4.3,7.2-6.4,12.7-6.4c4.6,0,8,1.3,10.2,4
		c2.2,2.7,3.4,6.7,3.4,12.1v27h-11.3v-27c0-2.4-0.5-4.2-1.4-5.3c-0.9-1.1-2.6-1.7-5-1.7c-3.4,0-5.7,1.6-7,4.9l0,29.1h-11.3v-27
		c0-2.5-0.5-4.2-1.4-5.3c-1-1.1-2.6-1.6-4.9-1.6c-3.2,0-5.5,1.3-7,4v30h-11.3v-42.3H302.2z"/>
	<path class="st3" d="M357.1,305.5c0-4.2,0.8-7.9,2.4-11.2c1.6-3.3,3.9-5.8,7-7.6c3-1.8,6.6-2.7,10.6-2.7c5.7,0,10.4,1.7,14,5.2
		c3.6,3.5,5.6,8.2,6,14.2l0.1,2.9c0,6.5-1.8,11.7-5.4,15.6c-3.6,3.9-8.5,5.9-14.6,5.9s-11-2-14.6-5.9s-5.4-9.2-5.4-15.9V305.5z
		 M368.4,306.4c0,4,0.8,7.1,2.3,9.2c1.5,2.1,3.7,3.2,6.5,3.2c2.7,0,4.9-1,6.4-3.1c1.5-2.1,2.3-5.5,2.3-10.1c0-3.9-0.8-7-2.3-9.2
		c-1.5-2.2-3.7-3.2-6.5-3.2c-2.8,0-4.9,1.1-6.4,3.2C369.1,298.5,368.4,301.8,368.4,306.4z"/>
</g>
</svg>
