<?xml version="1.0" standalone="no"?>
<!DOCTYPE svg PUBLIC "-//W3C//DTD SVG 20010904//EN"
 "http://www.w3.org/TR/2001/REC-SVG-20010904/DTD/svg10.dtd">
<svg version="1.0" xmlns="http://www.w3.org/2000/svg"
 width="700.000000pt" height="700.000000pt" viewBox="0 0 700.000000 700.000000"
 preserveAspectRatio="xMidYMid meet">
<metadata>
Created by potrace 1.11, written by Peter Selinger 2001-2013
</metadata>
<g transform="translate(0.000000,700.000000) scale(0.100000,-0.100000)"
fill="#000000" stroke="none">
<path d="M1677 5308 c906 -906 1649 -1648 1649 -1648 1 0 1 741 0 1648 l-1
1647 -1648 0 -1648 1 1648 -1648z"/>
<path d="M3658 6943 c-2 -4 -4 -746 -3 -1648 l0 -1640 1595 0 c877 0 1619 2
1647 5 l53 5 -1644 1643 c-904 904 -1645 1640 -1648 1635z"/>
<path d="M3655 1690 c1 -902 3 -1642 6 -1645 4 -3 3244 3229 3288 3280 2 3
-738 5 -1646 5 l-1649 0 1 -1640z"/>
<path d="M1673 1675 l-1644 -1645 1651 0 1651 0 -2 1645 c-1 905 -4 1645 -7
1645 -2 0 -744 -740 -1649 -1645z"/>
</g>
</svg>
